<mxfile host="Electron" agent="Mozilla/5.0 (Macintosh; Intel Mac OS X 10_15_7) AppleWebKit/537.36 (KHTML, like Gecko) draw.io/26.2.2 Chrome/134.0.6998.178 Electron/35.1.2 Safari/537.36" version="26.2.2">
  <diagram id="replay-sequence-diagram" name="Replay Sequence Diagram">
    <mxGraphModel dx="1700" dy="926" grid="1" gridSize="10" guides="1" tooltips="1" connect="1" arrows="1" fold="1" page="1" pageScale="1" pageWidth="1100" pageHeight="850" math="0" shadow="0">
      <root>
        <mxCell id="0" />
        <mxCell id="1" parent="0" />
        <mxCell id="2" value="Client" style="shape=umlActor;verticalLabelPosition=bottom;verticalAlign=top;html=1;" parent="1" vertex="1">
          <mxGeometry x="50" y="110" width="30" height="60" as="geometry" />
        </mxCell>
        <mxCell id="3" value="Storage API&#xa;(ReplayServiceAWSImpl)" style="shape=umlLifeline;perimeter=lifelinePerimeter;whiteSpace=wrap;html=1;container=1;collapsible=0;recursiveResize=0;outlineConnect=0;" parent="1" vertex="1">
          <mxGeometry x="150" y="80" width="140" height="700" as="geometry" />
        </mxCell>
        <mxCell id="4" value="DynamoDB&#xa;(ReplayRepository)" style="shape=umlLifeline;perimeter=lifelinePerimeter;whiteSpace=wrap;html=1;container=1;collapsible=0;recursiveResize=0;outlineConnect=0;" parent="1" vertex="1">
          <mxGeometry x="350" y="80" width="100" height="700" as="geometry" />
        </mxCell>
        <mxCell id="5" value="Schema Service" style="shape=umlLifeline;perimeter=lifelinePerimeter;whiteSpace=wrap;html=1;container=1;collapsible=0;recursiveResize=0;outlineConnect=0;" parent="1" vertex="1">
          <mxGeometry x="500" y="80" width="100" height="700" as="geometry" />
        </mxCell>
        <mxCell id="6" value="Replay SNS Topic" style="shape=umlLifeline;perimeter=lifelinePerimeter;whiteSpace=wrap;html=1;container=1;collapsible=0;recursiveResize=0;outlineConnect=0;" parent="1" vertex="1">
          <mxGeometry x="650" y="80" width="120" height="700" as="geometry" />
        </mxCell>
        <mxCell id="30" value="Resume-on-Failure: If a pod fails during processing, another pod can&#xa;pick up the message from SQS and resume from the last saved cursor in DynamoDB" style="shape=note;whiteSpace=wrap;html=1;size=14;verticalAlign=top;align=left;spacingTop=-6;" parent="6" vertex="1">
          <mxGeometry x="-180" y="520" width="300" height="50" as="geometry" />
        </mxCell>
        <mxCell id="7" value="Replay SQS Queue" style="shape=umlLifeline;perimeter=lifelinePerimeter;whiteSpace=wrap;html=1;container=1;collapsible=0;recursiveResize=0;outlineConnect=0;" parent="1" vertex="1">
          <mxGeometry x="800" y="80" width="100" height="700" as="geometry" />
        </mxCell>
        <mxCell id="4zWbBfdOWZy71T_9gvin-34" value="Update status to COMPLETE" style="html=1;verticalAlign=bottom;endArrow=block;" edge="1" parent="7">
          <mxGeometry relative="1" as="geometry">
            <mxPoint x="220" y="699" as="sourcePoint" />
            <mxPoint x="-400" y="699" as="targetPoint" />
          </mxGeometry>
        </mxCell>
        <mxCell id="8" value="Storage Replay Message Processor" style="shape=umlLifeline;perimeter=lifelinePerimeter;whiteSpace=wrap;html=1;container=1;collapsible=0;recursiveResize=0;outlineConnect=0;" parent="1" vertex="1">
          <mxGeometry x="950" y="80" width="140" height="700" as="geometry" />
        </mxCell>
        <mxCell id="9" value="POST /replay" style="html=1;verticalAlign=bottom;endArrow=block;" parent="1" source="2" target="3" edge="1">
          <mxGeometry relative="1" as="geometry">
            <mxPoint x="80" y="160" as="sourcePoint" />
            <mxPoint as="offset" />
          </mxGeometry>
        </mxCell>
        <mxCell id="10" value="Create initial status record" style="html=1;verticalAlign=bottom;endArrow=block;" parent="1" edge="1">
          <mxGeometry relative="1" as="geometry">
            <mxPoint x="220" y="180" as="sourcePoint" />
            <mxPoint x="399.5" y="180" as="targetPoint" />
          </mxGeometry>
        </mxCell>
        <mxCell id="11" value="Return Replay ID" style="html=1;verticalAlign=bottom;endArrow=open;dashed=1;endSize=8;" parent="1" edge="1">
          <mxGeometry relative="1" as="geometry">
            <mxPoint x="220" y="220" as="sourcePoint" />
            <mxPoint x="65" y="220" as="targetPoint" />
          </mxGeometry>
        </mxCell>
        <mxCell id="12" value="Start async processing" style="html=1;verticalAlign=bottom;endArrow=block;entryX=0;entryY=0;" parent="1" edge="1">
          <mxGeometry relative="1" as="geometry">
            <mxPoint x="220" y="260" as="sourcePoint" />
            <mxPoint x="220" y="260" as="targetPoint" />
          </mxGeometry>
        </mxCell>
        <mxCell id="13" value="Get schema kinds" style="html=1;verticalAlign=bottom;endArrow=block;" parent="1" edge="1">
          <mxGeometry relative="1" as="geometry">
            <mxPoint x="220" y="280" as="sourcePoint" />
            <mxPoint x="549.5" y="280" as="targetPoint" />
          </mxGeometry>
        </mxCell>
        <mxCell id="14" value="Return kinds" style="html=1;verticalAlign=bottom;endArrow=open;dashed=1;endSize=8;" parent="1" edge="1">
          <mxGeometry relative="1" as="geometry">
            <mxPoint x="549.5" y="310" as="sourcePoint" />
            <mxPoint x="220" y="310" as="targetPoint" />
          </mxGeometry>
        </mxCell>
        <mxCell id="15" value="Create metadata records for each kind" style="html=1;verticalAlign=bottom;endArrow=block;" parent="1" edge="1">
          <mxGeometry relative="1" as="geometry">
            <mxPoint x="220" y="340" as="sourcePoint" />
            <mxPoint x="399.5" y="340" as="targetPoint" />
          </mxGeometry>
        </mxCell>
        <mxCell id="16" value="Publish replay messages" style="html=1;verticalAlign=bottom;endArrow=block;" parent="1" edge="1">
          <mxGeometry relative="1" as="geometry">
            <mxPoint x="220" y="380" as="sourcePoint" />
            <mxPoint x="699.5" y="380" as="targetPoint" />
          </mxGeometry>
        </mxCell>
        <mxCell id="17" value="Forward messages" style="html=1;verticalAlign=bottom;endArrow=block;" parent="1" edge="1">
          <mxGeometry relative="1" as="geometry">
            <mxPoint x="710" y="410" as="sourcePoint" />
            <mxPoint x="849.5" y="410" as="targetPoint" />
          </mxGeometry>
        </mxCell>
        <mxCell id="18" value="Poll for messages" style="html=1;verticalAlign=bottom;endArrow=block;" parent="1" edge="1">
          <mxGeometry relative="1" as="geometry">
            <mxPoint x="1019.5" y="440" as="sourcePoint" />
            <mxPoint x="849.5" y="440" as="targetPoint" />
          </mxGeometry>
        </mxCell>
        <mxCell id="19" value="Return messages" style="html=1;verticalAlign=bottom;endArrow=open;dashed=1;endSize=8;" parent="1" edge="1">
          <mxGeometry relative="1" as="geometry">
            <mxPoint x="849.5" y="470" as="sourcePoint" />
            <mxPoint x="1019.5" y="470" as="targetPoint" />
          </mxGeometry>
        </mxCell>
        <mxCell id="20" value="Update status to IN_PROGRESS" style="html=1;verticalAlign=bottom;endArrow=block;" parent="1" edge="1">
          <mxGeometry relative="1" as="geometry">
            <mxPoint x="1019.5" y="500" as="sourcePoint" />
            <mxPoint x="399.5" y="500" as="targetPoint" />
          </mxGeometry>
        </mxCell>
        <mxCell id="21" value="Process records in batches" style="html=1;verticalAlign=bottom;endArrow=block;" parent="1" edge="1">
          <mxGeometry relative="1" as="geometry">
            <mxPoint x="1019.5" y="530" as="sourcePoint" />
            <mxPoint x="1019.5" y="530" as="targetPoint" />
          </mxGeometry>
        </mxCell>
        <mxCell id="22" value="Update cursor after each batch" style="html=1;verticalAlign=bottom;endArrow=block;" parent="1" edge="1">
          <mxGeometry relative="1" as="geometry">
            <mxPoint x="1019.5" y="560" as="sourcePoint" />
            <mxPoint x="399.5" y="560" as="targetPoint" />
          </mxGeometry>
        </mxCell>
        <mxCell id="23" value="Pod failure" style="html=1;verticalAlign=bottom;endArrow=block;" parent="1" edge="1">
          <mxGeometry relative="1" as="geometry">
            <mxPoint x="1019.5" y="600" as="sourcePoint" />
            <mxPoint x="1019.5" y="600" as="targetPoint" />
          </mxGeometry>
        </mxCell>
        <mxCell id="24" value="Message visibility timeout" style="html=1;verticalAlign=bottom;endArrow=block;" parent="1" edge="1">
          <mxGeometry relative="1" as="geometry">
            <mxPoint x="849.5" y="630" as="sourcePoint" />
            <mxPoint x="849.5" y="630" as="targetPoint" />
          </mxGeometry>
        </mxCell>
        <mxCell id="25" value="New pod polls for message" style="html=1;verticalAlign=bottom;endArrow=block;" parent="1" edge="1">
          <mxGeometry relative="1" as="geometry">
            <mxPoint x="1019.5" y="660" as="sourcePoint" />
            <mxPoint x="849.5" y="660" as="targetPoint" />
          </mxGeometry>
        </mxCell>
        <mxCell id="26" value="Return message" style="html=1;verticalAlign=bottom;endArrow=open;dashed=1;endSize=8;" parent="1" edge="1">
          <mxGeometry relative="1" as="geometry">
            <mxPoint x="849.5" y="690" as="sourcePoint" />
            <mxPoint x="1019.5" y="690" as="targetPoint" />
          </mxGeometry>
        </mxCell>
        <mxCell id="27" value="Get last cursor position" style="html=1;verticalAlign=bottom;endArrow=block;" parent="1" edge="1">
          <mxGeometry relative="1" as="geometry">
            <mxPoint x="1019.5" y="720" as="sourcePoint" />
            <mxPoint x="399.5" y="720" as="targetPoint" />
          </mxGeometry>
        </mxCell>
        <mxCell id="28" value="Return cursor" style="html=1;verticalAlign=bottom;endArrow=open;dashed=1;endSize=8;" parent="1" edge="1">
          <mxGeometry relative="1" as="geometry">
            <mxPoint x="399.5" y="750" as="sourcePoint" />
            <mxPoint x="1019.5" y="750" as="targetPoint" />
          </mxGeometry>
        </mxCell>
        <mxCell id="29" value="Resume processing from cursor" style="html=1;verticalAlign=bottom;endArrow=block;" parent="1" edge="1">
          <mxGeometry relative="1" as="geometry">
            <mxPoint x="1019.5" y="780" as="sourcePoint" />
            <mxPoint x="1019.5" y="780" as="targetPoint" />
          </mxGeometry>
        </mxCell>
        <mxCell id="31" value="Each batch updates the cursor position&#xa;in DynamoDB for fault tolerance" style="shape=note;whiteSpace=wrap;html=1;size=14;verticalAlign=top;align=left;spacingTop=-6;" parent="1" vertex="1">
          <mxGeometry x="420" y="530" width="220" height="40" as="geometry" />
        </mxCell>
        <mxCell id="4zWbBfdOWZy71T_9gvin-31" value="Storage SNS Topic" style="shape=umlLifeline;perimeter=lifelinePerimeter;whiteSpace=wrap;html=1;container=1;collapsible=0;recursiveResize=0;outlineConnect=0;" vertex="1" parent="1">
          <mxGeometry x="1100" y="80" width="120" height="700" as="geometry" />
        </mxCell>
        <mxCell id="4zWbBfdOWZy71T_9gvin-33" value="Publish update message&amp;nbsp;" style="html=1;verticalAlign=bottom;endArrow=block;" edge="1" parent="1">
          <mxGeometry relative="1" as="geometry">
            <mxPoint x="1020" y="549.5" as="sourcePoint" />
            <mxPoint x="1159.5" y="549.5" as="targetPoint" />
          </mxGeometry>
        </mxCell>
      </root>
    </mxGraphModel>
  </diagram>
</mxfile>
